<?xml version="1.0" encoding="iso-8859-1"?>
<!-- Generator: Adobe Illustrator 19.0.0, SVG Export Plug-In . SVG Version: 6.00 Build 0)  -->
<svg xmlns="http://www.w3.org/2000/svg" xmlns:xlink="http://www.w3.org/1999/xlink" version="1.1" id="Layer_1" x="0px" y="0px" viewBox="0 0 512 512" style="enable-background:new 0 0 512 512;" xml:space="preserve" width="512" height="512">
<g>
	<g>
		<g>
			<g>
				<g>
					<g>
						<g>
							<g>
								<path d="M359.49,161.8c-0.65,0-1.311-0.07-1.96-0.2c-0.631-0.13-1.261-0.319-1.87-0.569          c-0.601-0.25-1.181-0.561-1.721-0.921c-0.55-0.359-1.06-0.779-1.52-1.239c-0.46-0.46-0.88-0.98-1.25-1.521          c-0.36-0.55-0.67-1.13-0.92-1.729c-0.25-0.601-0.44-1.23-0.57-1.87c-0.13-0.65-0.189-1.3-0.189-1.96          c0-0.65,0.06-1.3,0.189-1.95c0.13-0.64,0.32-1.27,0.57-1.87c0.25-0.6,0.56-1.18,0.92-1.729c0.37-0.54,0.79-1.051,1.25-1.511          c0.46-0.47,0.97-0.88,1.52-1.25c0.54-0.359,1.12-0.67,1.721-0.92c0.609-0.25,1.239-0.439,1.87-0.569          c1.289-0.261,2.619-0.261,3.909,0c0.641,0.13,1.27,0.319,1.87,0.569c0.61,0.25,1.19,0.561,1.73,0.92          c0.55,0.37,1.06,0.78,1.52,1.25c1.86,1.86,2.931,4.431,2.931,7.06c0,0.66-0.07,1.31-0.2,1.96          c-0.13,0.64-0.32,1.27-0.57,1.87c-0.25,0.6-0.56,1.18-0.92,1.729c-0.36,0.54-0.78,1.061-1.24,1.521          c-0.46,0.46-0.97,0.88-1.52,1.239c-0.54,0.36-1.12,0.671-1.73,0.921c-0.6,0.25-1.229,0.439-1.87,0.569          C360.8,161.73,360.14,161.8,359.49,161.8z"/>
							</g>
						</g>
					</g>
				</g>
			</g>
		</g>
	</g>
	<g>
		<g>
			<g>
				<g>
					<path d="M507.946,247.96l-46.464-34.363c-3.036-2.246-7.078-2.588-10.448-0.89c-3.371,1.7-5.498,5.154-5.498,8.93v6.172       h-35.222c-2.786-15.28-7.817-30.118-14.936-43.862c-2.542-4.905-8.577-6.818-13.478-4.281       c-4.904,2.54-6.821,8.575-4.281,13.479c10.12,19.54,15.252,40.688,15.252,62.856c0,75.471-61.399,136.87-136.87,136.87       c-19.179,0-37.723-3.885-55.117-11.548c-5.051-2.227-10.956,0.065-13.183,5.12c-2.227,5.054,0.066,10.956,5.12,13.183       c11.669,5.141,23.785,8.798,36.23,10.95v34.961h-6.172c-3.776,0-7.229,2.127-8.929,5.498c-1.7,3.371-1.356,7.412,0.889,10.448       l34.364,46.464c1.886,2.55,4.869,4.054,8.04,4.054c3.171,0,6.154-1.504,8.04-4.054l34.363-46.464       c2.245-3.036,2.589-7.077,0.89-10.448c-1.7-3.371-5.154-5.498-8.93-5.498h-6.173v-35.435       c63.356-12.075,113.324-62.38,124.899-125.909h35.204v6.172c0,3.775,2.127,7.229,5.498,8.93c1.423,0.717,2.965,1.07,4.501,1.07       c2.103,0,4.193-0.662,5.947-1.96l46.464-34.363c2.55-1.886,4.054-4.869,4.054-8.04S510.496,249.846,507.946,247.96z        M272.174,464.993l-14.932,20.189l-14.932-20.189c3.922-1.353,6.741-5.075,6.741-9.457V412.72c2.308,0.1,4.624,0.15,6.949,0.15       c3.167,0,6.312-0.095,9.433-0.281v42.947C265.433,459.918,268.251,463.642,272.174,464.993z M464.993,270.932       c-1.353-3.922-5.075-6.74-9.457-6.74h-42.878c0.14-2.713,0.212-5.444,0.212-8.191c0-2.733-0.072-5.465-0.215-8.191h42.881       c4.382,0,8.104-2.818,9.457-6.74L485.183,256L464.993,270.932z"/>
					<path d="M119.13,256c0-75.471,61.399-136.87,136.87-136.87c19.688,0,38.685,4.088,56.464,12.149       c5.03,2.28,10.957,0.053,13.237-4.977c2.281-5.03,0.053-10.956-4.978-13.237c-11.368-5.155-23.167-8.892-35.291-11.191V66.464       h6.173c3.775,0,7.23-2.127,8.93-5.498c1.699-3.371,1.355-7.412-0.89-10.448L265.282,4.054C263.396,1.504,260.413,0,257.242,0       c-3.171,0-6.154,1.504-8.04,4.054l-34.364,46.464c-2.245,3.036-2.589,7.077-0.889,10.448c1.7,3.371,5.153,5.498,8.929,5.498       h6.172v34.983c-64.531,11.219-115.657,62.005-127.383,126.362H66.463v-6.172c0-3.775-2.126-7.23-5.498-8.93       c-3.371-1.698-7.413-1.356-10.448,0.89L4.054,247.96C1.504,249.846,0,252.829,0,256s1.504,6.154,4.054,8.04l46.463,34.363       c1.754,1.298,3.845,1.96,5.947,1.96c1.536,0,3.078-0.354,4.501-1.07c3.372-1.7,5.498-5.154,5.498-8.93v-6.172h35.161       c4.525,25.166,15.145,48.698,31.365,69.166c1.974,2.491,4.895,3.789,7.844,3.789c2.176,0,4.367-0.706,6.205-2.162       c4.329-3.431,5.057-9.72,1.626-14.049C129.343,316.554,119.13,287.184,119.13,256z M242.31,47.007l14.932-20.189l14.932,20.189       c-3.923,1.352-6.741,5.075-6.741,9.457v42.942c-3.128-0.184-6.273-0.276-9.433-0.276c-2.329,0-4.645,0.051-6.949,0.152V56.464       C249.051,52.082,246.232,48.359,242.31,47.007z M56.463,264.191c-4.381,0-8.105,2.818-9.457,6.74L26.817,256l20.189-14.932       c1.352,3.922,5.075,6.74,9.457,6.74h42.878c-0.14,2.713-0.212,5.444-0.212,8.191c0,2.743,0.069,5.474,0.207,8.191H56.463z"/>
					<path d="M201.436,347.487c16.443,9.83,35.311,15.025,54.564,15.025c19.253,0,38.12-5.195,54.564-15.025       c3.021-1.805,4.869-5.064,4.869-8.583v-48.191c0-12.193-8.517-22.433-19.912-25.08c6.632-8.498,10.588-19.181,10.588-30.772       c0-27.63-22.479-50.108-50.108-50.108c-27.629,0-50.108,22.479-50.108,50.108c0,11.59,3.956,22.273,10.588,30.771       c-11.395,2.647-19.912,12.887-19.912,25.08v28.115c-17.022-16.184-27.08-38.943-27.08-62.828       c0-47.703,38.81-86.513,86.513-86.513s86.513,38.81,86.513,86.513c0,10.374-1.814,20.515-5.394,30.139       c-1.925,5.177,0.711,10.934,5.888,12.858c5.178,1.922,10.934-0.711,12.858-5.888c4.411-11.862,6.647-24.348,6.647-37.109       c0-58.731-47.781-106.513-106.513-106.513S149.487,197.269,149.487,256c0,37.271,19.891,72.315,51.913,91.465       C201.412,347.472,201.424,347.48,201.436,347.487z M295.433,333.021c-12.143,6.225-25.663,9.492-39.433,9.492       c-13.77,0-27.29-3.268-39.433-9.492v-42.308c0-3.168,2.573-5.745,5.736-5.745h33.387c0.103,0.001,0.206,0.002,0.309,0.002       c0.103,0,0.206-0.001,0.309-0.002h33.388c3.163,0,5.736,2.577,5.736,5.745V333.021z M256,204.753       c16.602,0,30.108,13.507,30.108,30.108c0,16.498-13.339,29.939-29.797,30.107h-0.622       c-16.459-0.167-29.797-13.609-29.797-30.107C225.892,218.26,239.398,204.753,256,204.753z"/>
				</g>
			</g>
		</g>
	</g>
</g>















</svg>
