<?xml version="1.0" encoding="utf-8"?>
<!-- Generator: Adobe Illustrator 23.0.0, SVG Export Plug-In . SVG Version: 6.00 Build 0)  -->
<svg version="1.1" id="Layer_1" xmlns="http://www.w3.org/2000/svg" xmlns:xlink="http://www.w3.org/1999/xlink" x="0px" y="0px"
	 viewBox="0 0 512 512" style="enable-background:new 0 0 512 512;" xml:space="preserve">
<style type="text/css">
	.st0{fill:none;}
</style>
<g>
	<g>
		<path d="M364.2,138.3c-61.5-61.5-161.5-61.5-222.9,0c-29.8,29.8-46.2,69.4-46.2,111.5s16.4,81.7,46.2,111.5
			c30.7,30.7,71.1,46.1,111.5,46.1c40.4,0,80.7-15.4,111.5-46.1C425.7,299.8,425.7,199.8,364.2,138.3z M352.8,349.8
			c-55.1,55.2-144.9,55.1-200,0c-26.7-26.7-41.4-62.2-41.4-100s14.7-73.3,41.4-100c27.6-27.6,63.8-41.4,100-41.4s72.4,13.8,100,41.4
			C407.9,204.9,407.9,294.7,352.8,349.8z"/>
	</g>
</g>
<g>
	<g>
		<path d="M425.8,177.5c-1.7-4.1-6.5-6.1-10.6-4.4c-4.1,1.7-6.1,6.5-4.4,10.6c8.7,20.9,13.1,43.1,13.1,66c0,4.5,3.6,8.1,8.1,8.1
			s8.1-3.6,8.1-8.1C440.1,224.7,435.3,200.4,425.8,177.5z"/>
	</g>
</g>
<g>
	<g>
		<path d="M405.7,141.4c-6.1-8.5-12.9-16.7-20.4-24.1c-35.4-35.4-82.5-54.9-132.5-54.9c-4.5,0-8.1,3.6-8.1,8.1s3.6,8.1,8.1,8.1
			c45.7,0,88.7,17.8,121.1,50.1c6.8,6.8,13.1,14.3,18.7,22.1c1.6,2.2,4.1,3.4,6.6,3.4c1.6,0,3.3-0.5,4.7-1.5
			C407.4,150.1,408.3,145.1,405.7,141.4z"/>
	</g>
</g>
<g>
	<g>
		<path d="M472.5,249.8c0-58.7-22.9-113.9-64.4-155.4C366.6,52.9,311.5,30,252.7,30C194,30,138.8,52.9,97.3,94.4
			c-85.7,85.7-85.7,225.1,0,310.8c41.5,41.5,96.7,64.4,155.4,64.4c53.9,0,104.9-19.3,145-54.7c0-0.2-0.1-0.6,0.1-0.9
			c0.4-1,1.9-0.9,3.7-0.9c0.4-1.1,1.2-2.1,2.3-2.6c0.7-1.3,1.9-2.3,3.8-2.5c0.4-1,1.1-1.9,2-2.4c0.4-1.1,0.7-1.9,0.7-1.9
			c0,0,0.1-0.1,0.1-0.1c0,0,0,0,0.1-0.1c0,0,0,0,0,0c0.5-0.5,1.2-1,2-1.2c0.3-1,0.9-1.8,1.8-2.4l-0.4-0.4
			C451.7,358.6,472.5,305.8,472.5,249.8z M396.7,393.8c-38.5,38.5-89.6,59.6-144,59.6s-105.5-21.2-144-59.6
			c-79.4-79.4-79.4-208.5,0-287.9c38.5-38.5,89.6-59.6,144-59.6c54.4,0,105.5,21.2,144,59.6c38.5,38.5,59.6,89.6,59.6,144
			S435.2,355.3,396.7,393.8z"/>
	</g>
</g>
<g>
	<g>
		<path d="M364,293.5h-9.2V167.7c0-4.5-3.6-8.1-8.1-8.1h-38.9c-4.5,0-8.1,3.6-8.1,8.1v125.8h-22.7v-86.9c0-4.5-3.6-8.1-8.1-8.1
			h-38.9c-4.5,0-8.1,3.6-8.1,8.1v86.9h-22.7v-99.9c0-4.5-3.6-8.1-8.1-8.1h-38.9c-4.5,0-8.1,3.6-8.1,8.1v99.9h-9.2
			c-4.5,0-8.1,3.6-8.1,8.1s3.6,8.1,8.1,8.1h17.3h38.9h38.9H269h38.9h38.9H364c4.5,0,8.1-3.6,8.1-8.1S368.5,293.5,364,293.5z
			 M183.1,293.5h-22.7v-91.8h22.7V293.5z M260.9,293.5h-22.7v-78.8h22.7V293.5z M338.7,293.5H316V175.8h22.7V293.5z"/>
	</g>
</g>
<rect id="_x3C_Sector_x3E__2_" x="391" y="512" class="st0" width="1" height="23"/>
</svg>
