<?xml version="1.0" encoding="iso-8859-1"?>
<!-- Generator: Adobe Illustrator 19.0.0, SVG Export Plug-In . SVG Version: 6.00 Build 0)  -->
<svg version="1.1" id="Capa_1" xmlns="http://www.w3.org/2000/svg" xmlns:xlink="http://www.w3.org/1999/xlink" x="0px" y="0px"
	 viewBox="0 0 425.92 425.92" style="enable-background:new 0 0 425.92 425.92;" xml:space="preserve">
<g>
	<g>
		<path d="M212.96,0C95.345,0,0,95.345,0,212.96s95.345,212.96,212.96,212.96s212.96-95.345,212.96-212.96
			C425.788,95.4,330.52,0.132,212.96,0z M218,93.52c61.942,2.827,111.529,52.38,114.4,114.32l-70,0
			c-2.445-23.434-20.966-41.955-44.4-44.4V93.52z M207.84,10.32v72.96c-67.626,2.737-121.823,56.933-124.56,124.56H10.32
			C13.175,99.957,99.957,13.175,207.84,10.32z M207.84,93.52v69.92c-23.434,2.445-41.955,20.966-44.4,44.4H93.52
			C96.387,145.929,145.929,96.387,207.84,93.52z M207.84,415.6c-107.802-2.853-194.533-89.509-197.511-197.28H83.28
			c2.858,67.533,57.022,121.592,124.56,124.32V415.6z M207.84,332.4c-61.911-2.867-111.453-52.409-114.32-114.32l69.92-0.08
			c2.445,23.434,20.966,41.955,44.4,44.4V332.4z M173.44,212.96c0-21.826,17.694-39.52,39.52-39.52s39.52,17.694,39.52,39.52
			c0,21.826-17.694,39.52-39.52,39.52C191.242,252.221,173.699,234.678,173.44,212.96z M262.4,218h70
			c-2.827,61.942-52.38,111.53-114.32,114.4l-0.08-70C241.434,259.955,259.955,241.434,262.4,218z M218.32,415.591V342.64
			c67.533-2.858,121.592-57.022,124.32-124.56h72.96C412.747,325.882,326.091,412.613,218.32,415.591z M342.64,208
			c-2.656-67.689-56.875-121.977-124.56-124.72V10.32c107.883,2.855,194.665,89.637,197.52,197.52V208H342.64z"/>
	</g>
</g>
<g>
</g>
<g>
</g>
<g>
</g>
<g>
</g>
<g>
</g>
<g>
</g>
<g>
</g>
<g>
</g>
<g>
</g>
<g>
</g>
<g>
</g>
<g>
</g>
<g>
</g>
<g>
</g>
<g>
</g>
</svg>
