<?xml version="1.0" encoding="utf-8"?>
<!-- Generator: Adobe Illustrator 23.0.0, SVG Export Plug-In . SVG Version: 6.00 Build 0)  -->
<svg version="1.1" id="Capa_1" xmlns="http://www.w3.org/2000/svg" xmlns:xlink="http://www.w3.org/1999/xlink" x="0px" y="0px"
	 viewBox="0 0 512 512" style="enable-background:new 0 0 512 512;" xml:space="preserve">
<style type="text/css">
	.st0{fill:none;stroke:#000000;stroke-width:14;stroke-miterlimit:10;}
</style>
<g>
	<g>
		<path d="M380.6,325.1l0-192.1c0-19.9-16.7-36-37.2-36c-18.4,0-33.3,12.8-36.5,29.2l-0.8,0.5c-42.9,27.7-92.8,42.3-144.3,42.3H70.9
			c-20.5,0-37.2,16.1-37.2,36v48c0,19.9,16.6,36,37.2,36h12.4l0,84c0,19.9,16.6,36,37.2,36c20.5,0,37.2-16.2,37.2-36v-36H170
			c20.5,0,37.2-16.1,37.2-36l0-8.2c35.2,6,68.8,19,98.9,38.5l0.8,0.5c3.3,16.6,18.5,29.1,36.5,29.1l0,0
			C363.9,361.1,380.6,344.9,380.6,325.1z M70.9,265c-6.8,0-12.4-5.4-12.4-12v-48c0-6.6,5.5-12,12.4-12l86.7,0v72
			C149.1,265,79.6,265,70.9,265z M132.8,373.1c0,6.6-5.6,12-12.4,12c-6.8,0-12.4-5.4-12.4-12l0-84l24.8,0L132.8,373.1z M157.6,289
			c5.3,0,13.2-0.1,24.8,0.8l0,11.2c0,6.6-5.5,12-12.4,12h-12.4L157.6,289z M182.4,265.8v-73.5c43.8-3,86-15.8,123.9-37.4v148.3
			C268.4,281.5,226.1,268.8,182.4,265.8z M343.4,337.1c-6.8,0-12.4-5.4-12.4-12l0-192.1c0-6.6,5.5-12,12.4-12
			c6.8,0,12.4,5.4,12.4,12v192.1C355.8,331.7,350.2,337.1,343.4,337.1z"/>
	</g>
</g>
<g>
	<g>
		<path d="M132.8,229c0-6.6-5.5-12-12.4-12H95.6c-6.8,0-12.4,5.4-12.4,12c0,6.6,5.5,12,12.4,12h24.8
			C127.3,241,132.8,235.7,132.8,229z"/>
	</g>
</g>
<g>
	<g>
		<path d="M439.6,153.7c-4.8-4.7-12.7-4.7-17.5,0l-17.5,17c-4.8,4.7-4.8,12.3,0,17s12.7,4.7,17.5,0l17.5-17
			C444.5,166,444.5,158.4,439.6,153.7z"/>
	</g>
</g>
<g>
	<g>
		<path d="M439.6,289.5l-17.5-17c-4.8-4.7-12.7-4.7-17.5,0c-4.8,4.7-4.8,12.3,0,17l17.5,17c4.8,4.7,12.7,4.7,17.5,0
			S444.5,294.2,439.6,289.5z"/>
	</g>
</g>
<g>
	<g>
		<path d="M478.3,230.1c0-6.6-5.5-12-12.4-12h-35c-6.8,0-12.4,5.4-12.4,12c0,6.6,5.5,12,12.4,12h35
			C472.7,242.1,478.3,236.7,478.3,230.1z"/>
	</g>
</g>
<ellipse class="st0" cx="256" cy="256.5" rx="249" ry="246.5"/>
</svg>
